<svg width="20" height="14" viewBox="0 0 20 14" fill="none" xmlns="http://www.w3.org/2000/svg">
<path d="M0 13.6V4.64721C0 4.34986 0.312926 4.15646 0.578886 4.28944L9.82111 8.91056C9.93373 8.96686 10.0663 8.96686 10.1789 8.91056L19.4211 4.28944C19.6871 4.15646 20 4.34986 20 4.64721V13.6C20 13.8209 19.8209 14 19.6 14H0.4C0.179086 14 0 13.8209 0 13.6Z" fill="#013A59"/>
<path opacity="0.3" d="M19.6 0H0.4C0.179086 0 0 0.179086 0 0.4V2.70131C0 2.85222 0.0849252 2.99028 0.219613 3.05833L9.81961 7.90886C9.93304 7.96617 10.067 7.96617 10.1804 7.90886L19.7804 3.05833C19.9151 2.99028 20 2.85222 20 2.70132V0.4C20 0.179086 19.8209 0 19.6 0Z" fill="#013A59"/>
</svg>
