<svg width="20" height="14" viewBox="0 0 20 14" fill="none" xmlns="http://www.w3.org/2000/svg">
<path d="M20 0.4C20 0.179086 19.8209 0 19.6 0H0.4C0.179086 0 0 0.179086 0 0.4V3.15072C0 3.37164 0.179086 3.55072 0.4 3.55072H19.6C19.8209 3.55072 20 3.37164 20 3.15072V0.4Z" fill="#013A59"/>
<path d="M12.9842 5.47246C12.9842 5.25155 12.8051 5.07246 12.5842 5.07246H0.4C0.179086 5.07246 0 5.25155 0 5.47246V13.6C0 13.8209 0.179086 14 0.4 14H12.5842C12.8051 14 12.9842 13.8209 12.9842 13.6V5.47246Z" fill="#013A59"/>
<path opacity="0.3" d="M15 5.4C15 5.17909 15.1791 5 15.4 5H19.6C19.8209 5 20 5.17909 20 5.4V13.6C20 13.8209 19.8209 14 19.6 14H15.4C15.1791 14 15 13.8209 15 13.6V5.4Z" fill="#013A59"/>
</svg>
