<svg width="20" height="19" viewBox="0 0 20 19" fill="none" xmlns="http://www.w3.org/2000/svg">
<path d="M8.76394 1.05648C9.21335 -0.0547873 10.7867 -0.0547851 11.2361 1.05648L12.8055 4.93717C12.9965 5.40946 13.4399 5.73163 13.9481 5.76734L18.1239 6.06073C19.3196 6.14475 19.8058 7.64108 18.8878 8.4119L15.682 11.1037C15.2919 11.4313 15.1225 11.9526 15.2456 12.4469L16.2569 16.509C16.5465 17.6721 15.2737 18.5969 14.2569 17.9621L10.7062 15.745C10.2741 15.4752 9.72597 15.4752 9.29384 15.745L5.74315 17.9621C4.72638 18.5969 3.45352 17.6721 3.74313 16.509L4.75447 12.4469C4.87755 11.9526 4.70817 11.4313 4.31802 11.1037L1.11223 8.4119C0.194235 7.64108 0.680427 6.14475 1.87618 6.06073L6.05191 5.76734C6.56011 5.73163 7.00354 5.40946 7.19454 4.93717L8.76394 1.05648Z" fill="#F18334"/>
</svg>
