<svg width="21" height="15" viewBox="0 0 21 15" fill="none" xmlns="http://www.w3.org/2000/svg">
<path d="M0 0.4C0 0.179086 0.179086 0 0.4 0H17.6C17.8209 0 18 0.179086 18 0.4V3.1814C18 3.40231 17.8209 3.5814 17.6 3.5814H0.4C0.179086 3.5814 0 3.40231 0 3.1814V0.4Z" fill="#013A59"/>
<path d="M0 5.6093C0 5.38839 0.179085 5.2093 0.399999 5.2093H10.3791C10.6 5.2093 10.7791 5.38839 10.7791 5.6093V8.3907C10.7791 8.61161 10.6 8.7907 10.3791 8.7907H0.4C0.179086 8.7907 0 8.61161 0 8.3907V5.6093Z" fill="#013A59"/>
<path d="M10.7791 10.8186C10.7791 10.5977 10.6 10.4186 10.3791 10.4186H0.4C0.179086 10.4186 0 10.5977 0 10.8186V13.6C0 13.8209 0.179085 14 0.399999 14H10.3791C10.6 14 10.7791 13.8209 10.7791 13.6V10.8186Z" fill="#013A59"/>
<path opacity="0.3" d="M12.5032 9.00283C12.4464 8.92716 12.4175 8.83285 12.4217 8.73666L12.5304 6.22491C12.5413 5.97382 12.767 5.79082 13.0043 5.84068L15.3841 6.34063C15.4753 6.3598 15.5567 6.41203 15.6137 6.48797L19.8728 12.1627C20.0054 12.3394 19.9736 12.5953 19.8019 12.7342L17.3137 14.7464C17.1419 14.8854 16.8952 14.8547 16.7626 14.6781L12.5032 9.00283Z" fill="#013A59"/>
</svg>
