<svg width="30" height="21" viewBox="0 0 30 21" fill="none" xmlns="http://www.w3.org/2000/svg">
<path d="M1.97552 11.6359C1.2274 11.6359 0.620924 11.0294 0.620924 10.2812C0.620924 9.53312 1.2274 8.92665 1.97552 8.92665V11.6359ZM29.3968 9.3234C29.9258 9.85241 29.9258 10.7101 29.3968 11.2391L20.7762 19.8597C20.2472 20.3887 19.3895 20.3887 18.8605 19.8597C18.3315 19.3307 18.3315 18.473 18.8605 17.944L26.5232 10.2813L18.8605 2.61847C18.3315 2.08947 18.3315 1.23178 18.8605 0.702779C19.3895 0.173774 20.2472 0.173774 20.7762 0.702779L29.3968 9.3234ZM1.97552 8.92665L28.4389 8.92665V11.6359L1.97552 11.6359V8.92665Z" fill="white"/>
</svg>
