<svg width="44" height="30" viewBox="0 0 44 30" fill="none" xmlns="http://www.w3.org/2000/svg">
<path d="M2 13C0.895428 13 -3.8147e-06 13.8954 -3.8147e-06 15C-3.8147e-06 16.1046 0.895428 17 2 17L2 13ZM43.4142 16.4142C44.1953 15.6332 44.1953 14.3668 43.4142 13.5858L30.6863 0.857838C29.9052 0.076787 28.6389 0.076787 27.8578 0.857838C27.0768 1.63889 27.0768 2.90522 27.8578 3.68627L39.1716 15L27.8578 26.3137C27.0768 27.0948 27.0768 28.3611 27.8578 29.1422C28.6389 29.9232 29.9052 29.9232 30.6863 29.1422L43.4142 16.4142ZM2 17L42 17V13L2 13L2 17Z" fill="#028DD8"/>
</svg>
