<svg width="43" height="71" viewBox="0 0 43 71" fill="none" xmlns="http://www.w3.org/2000/svg">
<path d="M12.5922 47V43.515C12.5922 40.501 13.2296 37.8794 14.5043 35.6503C15.7791 33.4212 18.111 31.0508 21.5 28.5391C24.7646 26.1844 26.91 24.2692 27.936 22.7936C28.9931 21.318 29.5217 19.6697 29.5217 17.8487C29.5217 15.8079 28.7755 14.2538 27.2831 13.1864C25.7907 12.1189 23.7075 11.5852 21.0336 11.5852C16.3698 11.5852 11.0531 13.1236 5.08351 16.2004L0 5.88677C6.93348 1.96226 14.2867 0 22.0597 0C28.4646 0 33.5481 1.55411 37.3102 4.66232C41.1034 7.77054 43 11.9148 43 17.0952C43 20.5488 42.2227 23.5314 40.6681 26.0431C39.1135 28.5548 36.1598 31.3804 31.8069 34.52C28.8221 36.7492 26.9255 38.4446 26.1171 39.6062C25.3398 40.7679 24.9512 42.2906 24.9512 44.1743V47H12.5922Z" fill="#028DD8"/>
<path d="M13.0571 57.0235C11.6857 58.3725 11 60.3647 11 63C11 65.5412 11.701 67.5176 13.1029 68.9294C14.5048 70.3098 16.4857 71 19.0457 71C21.5448 71 23.4952 70.2941 24.8971 68.8824C26.299 67.4392 27 65.4784 27 63C27 60.4275 26.299 58.451 24.8971 57.0706C23.5257 55.6902 21.5752 55 19.0457 55C16.4248 55 14.4286 55.6745 13.0571 57.0235Z" fill="#028DD8" fill-opacity="0.5"/>
</svg>
